<svg xmlns="http://www.w3.org/2000/svg" viewBox="0 0 32 32" width="32" height="32">
  <defs>
    <linearGradient id="lollipopGradient" x1="0%" y1="0%" x2="100%" y2="100%">
      <stop offset="0%" style="stop-color:#FF6B9D;stop-opacity:1" />
      <stop offset="25%" style="stop-color:#4ECDC4;stop-opacity:1" />
      <stop offset="50%" style="stop-color:#FFE66D;stop-opacity:1" />
      <stop offset="75%" style="stop-color:#95E1D3;stop-opacity:1" />
      <stop offset="100%" style="stop-color:#FFA726;stop-opacity:1" />
    </linearGradient>
    <radialGradient id="candyGradient" cx="50%" cy="30%" r="70%">
      <stop offset="0%" style="stop-color:#FF6B9D;stop-opacity:1" />
      <stop offset="100%" style="stop-color:#E91E63;stop-opacity:1" />
    </radialGradient>
  </defs>
  
  <!-- Background circle -->
  <circle cx="16" cy="16" r="15" fill="#FFF" stroke="#FF6B9D" stroke-width="2"/>
  
  <!-- Lollipop stick -->
  <rect x="15" y="20" width="2" height="8" fill="#8D6E63" rx="1"/>
  
  <!-- Lollipop candy (spiral pattern) -->
  <circle cx="16" cy="16" r="8" fill="url(#candyGradient)" stroke="#fff" stroke-width="1"/>
  
  <!-- Spiral pattern on lollipop -->
  <path d="M16 8 A8 8 0 0 1 24 16 A8 8 0 0 1 16 24 A8 8 0 0 1 8 16 A8 8 0 0 1 16 8" 
        fill="none" stroke="url(#lollipopGradient)" stroke-width="2" stroke-linecap="round"/>
  
  <!-- Decorative dots -->
  <circle cx="12" cy="12" r="1" fill="#FFE66D"/>
  <circle cx="20" cy="12" r="1" fill="#4ECDC4"/>
  <circle cx="12" cy="20" r="1" fill="#95E1D3"/>
  <circle cx="20" cy="20" r="1" fill="#FFA726"/>
  
  <!-- Highlight -->
  <ellipse cx="13" cy="13" rx="2" ry="3" fill="#fff" opacity="0.3"/>
</svg>
